<svg width="186" height="186" viewBox="0 0 186 186" fill="none" xmlns="http://www.w3.org/2000/svg">
<path fill-rule="evenodd" clip-rule="evenodd" d="M186 93C186 144.362 144.362 186 93 186C41.6375 186 0 144.362 0 93C0 41.6375 41.6375 0 93 0C144.362 0 186 41.6375 186 93ZM181 93C181 141.601 141.601 181 93 181C44.3989 181 5 141.601 5 93C5 44.3989 44.3989 5 93 5C141.601 5 181 44.3989 181 93Z" fill="#F9F9F9"/>
<path d="M63.891 107.871C40.8841 114.24 25 127.8 25 143.5C25 165.315 55.6685 183 93.5 183C131.332 183 162 165.315 162 143.5C162 127.626 145.762 113.939 122.342 107.661C114.556 114.712 104.273 119 93 119C81.8387 119 71.648 114.797 63.891 107.871Z" fill="#F9F9F9"/>
<path d="M132 75C132 96.5391 114.539 114 93 114C71.4609 114 54 96.5391 54 75C54 53.4609 71.4609 36 93 36C114.539 36 132 53.4609 132 75Z" fill="#F9F9F9"/>
</svg>
