<svg width="40" height="40" viewBox="0 0 40 40" fill="none" xmlns="http://www.w3.org/2000/svg">
<circle cx="20" cy="20" r="20" fill="#C4C4C4" fill-opacity="0.01"/>
<path d="M20 12.875C17.5156 12.875 15.5 14.8906 15.5 17.375C15.5 19.8594 17.5156 21.875 20 21.875C22.4844 21.875 24.5 19.8594 24.5 17.375C24.5 14.8906 22.4844 12.875 20 12.875ZM20 19.625C18.7578 19.625 17.75 18.6172 17.75 17.375C17.75 16.1328 18.7578 15.125 20 15.125C21.2422 15.125 22.25 16.1328 22.25 17.375C22.25 18.6172 21.2422 19.625 20 19.625ZM20 8.375C13.5781 8.375 8.375 13.5781 8.375 20C8.375 26.4219 13.5781 31.625 20 31.625C26.4219 31.625 31.625 26.4219 31.625 20C31.625 13.5781 26.4219 8.375 20 8.375ZM20 29.375C17.6703 29.375 15.5422 28.5172 13.9016 27.1063C14.6 26.0281 15.7953 25.2969 17.1641 25.2547C18.1391 25.5547 19.0672 25.7047 20 25.7047C20.9328 25.7047 21.8609 25.5594 22.8359 25.2547C24.2047 25.3016 25.4 26.0281 26.0984 27.1063C24.4578 28.5172 22.3297 29.375 20 29.375ZM27.6266 25.4328C26.4828 23.9609 24.7156 23 22.7 23C22.2219 23 21.4812 23.45 20 23.45C18.5234 23.45 17.7781 23 17.3 23C15.2891 23 13.5219 23.9609 12.3734 25.4328C11.2766 23.9 10.625 22.025 10.625 20C10.625 14.8297 14.8297 10.625 20 10.625C25.1703 10.625 29.375 14.8297 29.375 20C29.375 22.025 28.7234 23.9 27.6266 25.4328Z" fill="#F9F9F9"/>
</svg>
