<svg width="36" height="36" viewBox="0 0 36 36" fill="none" xmlns="http://www.w3.org/2000/svg">
<rect width="36" height="36" fill="white" fill-opacity="0.01"/>
<path d="M25.5056 3.00012H10.5056C6.36348 3.00012 3.00562 6.35799 3.00562 10.5001V25.5001C3.00562 29.6423 6.36348 33.0001 10.5056 33.0001H25.5056C29.6477 33.0001 33.0056 29.6423 33.0056 25.5001V10.5001C33.0056 6.35799 29.6477 3.00012 25.5056 3.00012Z" stroke="#F9F9F9" stroke-linecap="round" stroke-linejoin="round"/>
<path d="M23.9937 17.0549C24.1788 18.3033 23.9656 19.5783 23.3843 20.6985C22.8031 21.8187 21.8834 22.7271 20.7561 23.2944C19.6289 23.8618 18.3514 24.0593 17.1054 23.8588C15.8594 23.6583 14.7084 23.0701 13.816 22.1777C12.9236 21.2853 12.3353 20.1342 12.1348 18.8883C11.9343 17.6423 12.1318 16.3648 12.6992 15.2375C13.2666 14.1102 14.175 13.1905 15.2952 12.6093C16.4154 12.0281 17.6903 11.8148 18.9387 11.9999C20.2121 12.1888 21.391 12.7821 22.3013 13.6924C23.2115 14.6027 23.8049 15.7816 23.9937 17.0549Z" stroke="#F9F9F9" stroke-linecap="round" stroke-linejoin="round"/>
</svg>
