<svg width="36" height="36" viewBox="0 0 36 36" fill="none" xmlns="http://www.w3.org/2000/svg">
<rect width="36" height="36" fill="white" fill-opacity="0.01"/>
<path d="M34.4944 4.49995C33.058 5.51316 31.4675 6.28811 29.7844 6.79495C28.881 5.75621 27.6804 5.01998 26.3449 4.68584C25.0095 4.35169 23.6036 4.43574 22.3175 4.92663C21.0314 5.41751 19.927 6.29155 19.1539 7.43052C18.3807 8.56949 17.9759 9.91845 17.9944 11.2949V12.7949C15.3583 12.8633 12.7463 12.2787 10.3909 11.0931C8.0355 9.90757 6.00986 8.1579 4.49438 5.99995C4.49438 5.99995 -1.50562 19.4999 11.9944 25.4999C8.90518 27.5969 5.22512 28.6483 1.49438 28.4999C14.9944 35.9999 31.4944 28.4999 31.4944 11.2499C31.493 10.8321 31.4528 10.4153 31.3744 10.0049C32.9053 8.49519 33.9856 6.58902 34.4944 4.49995V4.49995Z" stroke="#F9F9F9" stroke-linecap="round" stroke-linejoin="round"/>
</svg>
