<svg width="149" height="39" viewBox="0 0 149 39" fill="none" xmlns="http://www.w3.org/2000/svg">
<rect width="7.2179" height="7.24978" transform="matrix(0.965595 0.26005 -0.257593 0.966254 141.145 0)" fill="#F9F9F9"/>
<path d="M139.225 8.55504L145.468 10.2365L138.724 38.4526L130.884 36.3409L139.225 8.55504Z" fill="#F9F9F9"/>
<path d="M18.9771 27.3652C17.3267 27.873 15.634 28.127 13.8989 28.127C7.55128 28.127 4.37745 24.9743 4.37745 18.6689C4.37745 12.7021 7.55128 9.71875 13.8989 9.71875C15.634 9.71875 17.3267 9.97266 18.9771 10.4805V11.623C17.3267 11.1152 15.7186 10.8613 14.1528 10.8613C8.52458 10.8613 5.71046 13.4639 5.71046 18.6689C5.71046 24.2126 8.52458 26.9844 14.1528 26.9844C15.7186 26.9844 17.3267 26.7305 18.9771 26.2227V27.3652ZM24.8296 9.8457V28H23.4966V9.8457H24.8296ZM29.5396 28V9.8457H31.2534L43.3774 25.7402V9.8457H44.5835V28H43.5044L30.7456 11.3438V28H29.5396ZM60.5796 9.8457V10.9883H49.9917V18.2246H60.148V19.3672H49.9917V26.8574H60.7573V28H48.6587V9.8457H60.5796ZM68.6919 9.8457V22.7695C68.6919 26.2565 66.7664 28 62.9155 28V26.8574C65.8778 26.8574 67.3589 25.4948 67.3589 22.7695V9.8457H68.6919ZM72.7544 20.9922V9.8457H74.0874V20.9922C74.0874 24.987 76.0763 26.9844 80.0542 26.9844C84.0321 26.9844 86.021 24.987 86.021 20.9922V9.8457H87.354V20.9922C87.354 25.7487 84.9207 28.127 80.0542 28.127C75.1877 28.127 72.7544 25.7487 72.7544 20.9922ZM91.4165 28V9.8457H92.7495L100.938 26.4385L108.619 9.8457H109.825V28H108.619V12.2959L101.408 28H100.316L92.6226 12.1689V28H91.4165ZM113.887 28V9.8457H121.504C125.042 9.8457 126.811 11.5088 126.811 14.835C126.811 18.1104 123.98 20.1966 118.318 21.0938L118.089 19.875C122.914 19.2064 125.326 17.5602 125.326 14.9365C125.326 12.3298 123.98 11.0264 121.289 11.0264H115.22V28H113.887Z" fill="#F9F9F9"/>
</svg>
