<svg width="148" height="39" viewBox="0 0 148 39" fill="none" xmlns="http://www.w3.org/2000/svg">
<rect width="7.16934" height="7.20101" transform="matrix(0.965595 0.26005 -0.257593 0.966254 140.192 0)" fill="#E83F5B"/>
<path d="M138.285 8.49749L144.487 10.1677L137.788 38.1939L130 36.0964L138.285 8.49749Z" fill="#E83F5B"/>
<path d="M16.748 27.3408C15.0342 27.8682 13.2764 28.1318 11.4746 28.1318C4.88281 28.1318 1.58691 24.8579 1.58691 18.3101C1.58691 12.1138 4.88281 9.01562 11.4746 9.01562C13.2764 9.01562 15.0342 9.2793 16.748 9.80664V10.9932C15.0342 10.4658 13.3643 10.2021 11.7383 10.2021C5.89355 10.2021 2.97119 12.9048 2.97119 18.3101C2.97119 24.0669 5.89355 26.9453 11.7383 26.9453C13.3643 26.9453 15.0342 26.6816 16.748 26.1543V27.3408ZM22.8257 9.14746V28H21.4414V9.14746H22.8257ZM27.7168 28V9.14746H29.4966L42.0869 25.6533V9.14746H43.3394V28H42.2188L28.9692 10.7031V28H27.7168ZM59.9507 9.14746V10.334H48.9556V17.8486H59.5024V19.0352H48.9556V26.8135H60.1353V28H47.5713V9.14746H59.9507ZM68.375 9.14746V22.5684C68.375 26.1895 66.3755 28 62.3765 28V26.8135C65.4526 26.8135 66.9907 25.3984 66.9907 22.5684V9.14746H68.375ZM72.5938 20.7227V9.14746H73.978V20.7227C73.978 24.8711 76.0435 26.9453 80.1743 26.9453C84.3052 26.9453 86.3706 24.8711 86.3706 20.7227V9.14746H87.7549V20.7227C87.7549 25.6621 85.228 28.1318 80.1743 28.1318C75.1206 28.1318 72.5938 25.6621 72.5938 20.7227ZM91.9736 28V9.14746H93.3579L101.861 26.3784L109.837 9.14746H111.09V28H109.837V11.6919L102.349 28H101.215L93.2261 11.5601V28H91.9736ZM115.309 28V9.14746H123.219C126.893 9.14746 128.729 10.8745 128.729 14.3286C128.729 17.73 125.79 19.8965 119.91 20.8281L119.672 19.5625C124.682 18.8682 127.187 17.1587 127.187 14.4341C127.187 11.7271 125.79 10.3735 122.995 10.3735H116.693V28H115.309Z" fill="#E83F5B"/>
</svg>
